<svg xmlns="http://www.w3.org/2000/svg" xmlns:xlink="http://www.w3.org/1999/xlink" width="1000" zoomAndPan="magnify" viewBox="0 0 750 149.999998" height="200" preserveAspectRatio="xMidYMid meet" version="1.0"><defs><clipPath id="f903eb90f1"><path d="M 271.792969 93.558594 L 293.824219 93.558594 L 293.824219 130.226562 L 271.792969 130.226562 Z M 271.792969 93.558594 " clip-rule="nonzero"/></clipPath><clipPath id="b960145eb1"><path d="M 274.621094 95.921875 L 274.621094 110.691406 L 281.4375 110.691406 C 284.496094 110.691406 286.816406 110.046875 288.398438 108.746094 C 289.984375 107.445312 290.789062 105.632812 290.789062 103.285156 C 290.789062 101.03125 290.007812 99.25 288.453125 97.921875 C 286.898438 96.59375 284.671875 95.921875 281.773438 95.921875 Z M 271.792969 93.558594 L 281.878906 93.558594 C 285.742188 93.558594 288.695312 94.417969 290.746094 96.148438 C 292.800781 97.878906 293.820312 100.242188 293.820312 103.21875 C 293.820312 106.238281 292.785156 108.636719 290.71875 110.394531 C 288.65625 112.152344 285.609375 113.039062 281.613281 113.039062 L 274.621094 113.039062 L 274.621094 130.15625 L 271.792969 130.15625 Z M 271.792969 93.558594 " clip-rule="nonzero"/></clipPath><clipPath id="9a13d4436d"><path d="M 312.078125 93.558594 L 339.769531 93.558594 L 339.769531 130.230469 L 312.078125 130.230469 Z M 312.078125 93.558594 " clip-rule="nonzero"/></clipPath><clipPath id="8df661eac0"><path d="M 314.90625 95.921875 L 314.90625 110.25 L 320.984375 110.25 C 324.070312 110.25 326.445312 109.617188 328.066406 108.371094 C 329.691406 107.121094 330.523438 105.351562 330.523438 103.058594 C 330.523438 100.804688 329.691406 99.046875 328.027344 97.785156 C 326.363281 96.523438 323.988281 95.921875 320.878906 95.921875 Z M 312.078125 93.558594 L 321.453125 93.558594 C 325.382812 93.558594 328.390625 94.40625 330.46875 96.109375 C 332.546875 97.8125 333.582031 100.121094 333.582031 103.019531 C 333.582031 107.242188 331.261719 110.207031 326.605469 111.925781 C 327.8125 112.5 329.4375 114.367188 331.476562 117.503906 L 339.75 130.15625 L 336.398438 130.15625 L 330.027344 120.121094 C 327.894531 116.769531 326.242188 114.675781 325.050781 113.84375 C 323.855469 113.011719 322.136719 112.609375 319.859375 112.609375 L 314.90625 112.609375 L 314.90625 130.15625 L 312.078125 130.15625 Z M 312.078125 93.558594 " clip-rule="nonzero"/></clipPath><clipPath id="34beff1ad1"><path d="M 353.246094 93 L 392.261719 93 L 392.261719 130.773438 L 353.246094 130.773438 Z M 353.246094 93 " clip-rule="nonzero"/></clipPath><clipPath id="bf64a28858"><path d="M 372.820312 128.019531 C 377.382812 128.019531 381.234375 126.464844 384.359375 123.339844 C 387.484375 120.214844 389.054688 116.402344 389.054688 111.871094 C 389.054688 107.320312 387.484375 103.5 384.359375 100.375 C 381.234375 97.246094 377.371094 95.691406 372.820312 95.691406 C 368.246094 95.691406 364.371094 97.246094 361.203125 100.375 C 358.039062 103.5 356.457031 107.335938 356.457031 111.871094 C 356.457031 116.390625 358.039062 120.214844 361.203125 123.339844 C 364.371094 126.464844 368.246094 128.019531 372.820312 128.019531 M 372.714844 93.089844 C 378.132812 93.089844 382.722656 94.914062 386.476562 98.546875 C 390.234375 102.183594 392.140625 106.636719 392.140625 111.871094 C 392.140625 117.089844 390.261719 121.527344 386.492188 125.164062 C 382.722656 128.800781 378.132812 130.625 372.726562 130.625 C 367.335938 130.625 362.761719 128.800781 359.019531 125.164062 C 355.273438 121.527344 353.382812 117.101562 353.382812 111.871094 C 353.382812 106.625 355.261719 102.183594 359.003906 98.546875 C 362.746094 94.914062 367.320312 93.089844 372.714844 93.089844 " clip-rule="nonzero"/></clipPath><clipPath id="454f74d996"><path d="M 405.398438 93.546875 L 414.953125 93.546875 L 414.953125 130.773438 L 405.398438 130.773438 Z M 405.398438 93.546875 " clip-rule="nonzero"/></clipPath><clipPath id="37007cea30"><path d="M 412.113281 93.558594 L 412.113281 120.738281 C 412.113281 125.632812 410.398438 128.074219 406.976562 128.074219 L 405.890625 128.007812 L 405.554688 130.542969 C 406.199219 130.609375 406.761719 130.652344 407.257812 130.652344 C 409.335938 130.652344 411.132812 129.886719 412.648438 128.34375 C 414.167969 126.800781 414.929688 124.023438 414.929688 119.984375 L 414.929688 93.558594 Z M 412.113281 93.558594 " clip-rule="nonzero"/></clipPath><clipPath id="1df7d27604"><path d="M 436.046875 93.558594 L 456.007812 93.558594 L 456.007812 95.921875 L 436.046875 95.921875 Z M 436.046875 95.921875 L 438.878906 95.921875 L 438.878906 110.570312 L 436.046875 110.570312 Z M 436.046875 110.570312 L 455.566406 110.570312 L 455.566406 112.957031 L 436.046875 112.957031 Z M 436.046875 112.957031 L 438.878906 112.957031 L 438.878906 127.808594 L 436.046875 127.808594 Z M 436.046875 127.808594 L 456.425781 127.808594 L 456.425781 130.167969 L 436.046875 130.167969 Z M 436.046875 127.808594 " clip-rule="nonzero"/></clipPath><clipPath id="33dd0777c6"><path d="M 473.554688 93.089844 L 506.144531 93.089844 L 506.144531 130.75 L 473.554688 130.75 Z M 473.554688 93.089844 " clip-rule="nonzero"/></clipPath><clipPath id="2efd3a373a"><path d="M 505.65625 96.160156 L 505.65625 99.246094 C 501.214844 96.886719 496.871094 95.707031 492.601562 95.707031 C 488.054688 95.707031 484.257812 97.246094 481.199219 100.347656 C 478.140625 103.445312 476.613281 107.296875 476.613281 111.921875 C 476.613281 116.605469 478.15625 120.457031 481.226562 123.472656 C 484.300781 126.492188 488.21875 128.007812 492.992188 128.007812 C 496.976562 128.007812 501.308594 126.761719 506.019531 124.265625 L 506.019531 127.203125 C 501.683594 129.496094 497.367188 130.636719 493.046875 130.636719 C 487.480469 130.636719 482.835938 128.851562 479.121094 125.285156 C 475.40625 121.714844 473.554688 117.25 473.554688 111.921875 C 473.554688 106.558594 475.445312 102.078125 479.242188 98.480469 C 483.039062 94.886719 487.546875 93.089844 492.792969 93.089844 C 496.910156 93.089844 501.203125 94.109375 505.65625 96.160156 " clip-rule="nonzero"/></clipPath><clipPath id="fc7d3f130c"><path d="M 520.335938 93.558594 L 550.652344 93.558594 L 550.652344 95.921875 L 520.335938 95.921875 Z M 534.058594 95.921875 L 536.917969 95.921875 L 536.917969 130.167969 L 534.058594 130.167969 Z M 534.058594 95.921875 " clip-rule="nonzero"/></clipPath><clipPath id="2118c54387"><path d="M 566.230469 93.089844 L 586.824219 93.089844 L 586.824219 130.671875 L 566.230469 130.671875 Z M 566.230469 93.089844 " clip-rule="nonzero"/></clipPath><clipPath id="215da09308"><path d="M 585.222656 95.394531 L 585.222656 98.507812 C 582.046875 96.644531 579.308594 95.703125 577.027344 95.703125 C 574.828125 95.703125 572.988281 96.375 571.515625 97.714844 C 570.039062 99.058594 569.300781 100.707031 569.300781 102.679688 C 569.300781 104.089844 569.742188 105.375 570.617188 106.503906 C 571.488281 107.628906 573.3125 108.730469 576.089844 109.777344 C 578.867188 110.824219 580.890625 111.695312 582.164062 112.390625 C 583.441406 113.089844 584.527344 114.109375 585.414062 115.425781 C 586.296875 116.738281 586.753906 118.46875 586.753906 120.589844 C 586.753906 123.40625 585.722656 125.78125 583.667969 127.710938 C 581.617188 129.644531 579.09375 130.625 576.128906 130.625 C 573.082031 130.625 569.957031 129.5625 566.753906 127.429688 L 566.753906 124.117188 C 570.292969 126.71875 573.367188 128.019531 575.980469 128.019531 C 578.140625 128.019531 579.980469 127.324219 581.46875 125.914062 C 582.957031 124.507812 583.707031 122.789062 583.707031 120.738281 C 583.707031 119.179688 583.238281 117.785156 582.3125 116.539062 C 581.386719 115.289062 579.507812 114.125 576.679688 113.035156 C 573.847656 111.949219 571.808594 111.0625 570.589844 110.394531 C 569.367188 109.722656 568.347656 108.785156 567.503906 107.550781 C 566.65625 106.316406 566.230469 104.746094 566.230469 102.800781 C 566.230469 100.117188 567.261719 97.824219 569.3125 95.933594 C 571.367188 94.039062 573.863281 93.089844 576.757812 93.089844 C 579.605469 93.089844 582.433594 93.851562 585.222656 95.394531 " clip-rule="nonzero"/></clipPath><clipPath id="2ec1617345"><path d="M 633.855469 93.5625 L 636.6875 93.5625 L 636.6875 127.808594 L 633.855469 127.808594 Z M 633.855469 127.808594 L 654.796875 127.808594 L 654.796875 130.167969 L 633.855469 130.167969 Z M 633.855469 127.808594 " clip-rule="nonzero"/></clipPath><clipPath id="58c43dc473"><path d="M 663.582031 93.5625 L 693.898438 93.5625 L 693.898438 95.921875 L 663.582031 95.921875 Z M 677.304688 95.921875 L 680.164062 95.921875 L 680.164062 130.167969 L 677.304688 130.167969 Z M 677.304688 95.921875 " clip-rule="nonzero"/></clipPath><clipPath id="3c24420f94"><path d="M 44 35.199219 L 129.5 35.199219 L 129.5 122.972656 L 44 122.972656 Z M 44 35.199219 " clip-rule="nonzero"/></clipPath><clipPath id="783297d418"><path d="M 110.03125 70.289062 L 81.675781 70.289062 L 81.675781 83.5625 L 111.292969 83.5625 C 107.6875 94.648438 97.28125 102.664062 84.996094 102.664062 C 69.726562 102.664062 57.351562 90.289062 57.351562 75.019531 C 57.351562 59.746094 69.726562 47.371094 84.996094 47.371094 L 87.207031 47.464844 L 75.050781 35.308594 C 57.25 39.753906 44.0625 55.84375 44.0625 75.023438 C 44.0625 97.636719 62.394531 115.960938 84.996094 115.960938 C 97.355469 115.960938 108.425781 110.472656 115.933594 101.820312 L 115.933594 122.617188 L 129.207031 122.617188 L 129.207031 89.464844 Z M 110.03125 70.289062 " clip-rule="nonzero"/></clipPath><clipPath id="63d53662a9"><path d="M 3 16 L 140 16 L 140 132.566406 L 3 132.566406 Z M 3 16 " clip-rule="nonzero"/></clipPath><clipPath id="083e01f5ac"><path d="M 5.359375 130.085938 L 137.621094 130.085938 L 137.621094 87.261719 L 69.191406 18.839844 L 32.992188 54.578125 L 32.992188 31.753906 L 17.386719 31.753906 L 17.386719 69.980469 L 5.359375 81.855469 Z M 139.628906 132.09375 L 3.347656 132.09375 L 3.347656 81.019531 L 15.378906 69.136719 L 15.378906 29.742188 L 35 29.742188 L 35 49.769531 L 69.203125 16.007812 L 139.628906 86.429688 Z M 139.628906 132.09375 " clip-rule="nonzero"/></clipPath><clipPath id="0c0f46f759"><path d="M 115.109375 30.402344 L 212.476562 30.402344 L 212.476562 131.125 L 115.109375 131.125 Z M 115.109375 30.402344 " clip-rule="nonzero"/></clipPath><clipPath id="8ba5cb1a53"><path d="M 212.363281 131.0625 L 158.769531 77.476562 C 160.859375 73.183594 162.039062 68.367188 162.039062 63.269531 C 162.039062 45.308594 147.476562 30.746094 129.515625 30.746094 C 121.53125 30.746094 118.148438 31.859375 115.257812 34.082031 L 115.25 36.160156 C 115.242188 36.160156 115.25 38.335938 115.25 38.335938 L 115.25 44.335938 L 115.257812 50.605469 L 128.53125 63.757812 L 128.53125 44.4375 C 128.800781 44.421875 129.074219 44.410156 129.347656 44.410156 C 139.945312 44.410156 148.53125 52.996094 148.53125 63.59375 C 148.53125 69.726562 145.644531 75.183594 141.164062 78.703125 L 147.710938 85.25 C 147.71875 85.246094 147.71875 85.246094 147.726562 85.246094 L 150.550781 88.070312 C 150.558594 88.0625 150.574219 88.058594 150.578125 88.042969 L 193.597656 131.0625 Z M 212.363281 131.0625 " clip-rule="nonzero"/></clipPath><clipPath id="f5b0558417"><path d="M 181.300781 31 L 242.214844 31 L 242.214844 131 L 181.300781 131 Z M 181.300781 31 " clip-rule="nonzero"/></clipPath><clipPath id="efca2ea74e"><path d="M 222.082031 69.707031 C 219.066406 72.601562 215.425781 74.046875 211.136719 74.046875 C 206.804688 74.046875 203.101562 72.585938 200.019531 69.667969 C 196.9375 66.746094 195.398438 63.242188 195.398438 59.152344 C 195.398438 54.871094 196.859375 51.363281 199.777344 48.636719 C 202.699219 45.910156 206.4375 44.542969 211.003906 44.542969 C 215.519531 44.542969 219.25 45.929688 222.1875 48.710938 C 225.128906 51.488281 226.601562 55.019531 226.601562 59.296875 C 226.601562 63.34375 225.09375 66.8125 222.089844 69.714844 M 228.371094 80.65625 C 236.554688 74.917969 240.652344 67.65625 240.652344 58.855469 C 240.652344 51.054688 237.8125 44.476562 232.148438 39.140625 C 226.480469 33.800781 219.523438 31.136719 211.285156 31.136719 C 202.90625 31.136719 195.828125 33.828125 190.039062 39.214844 C 184.253906 44.597656 181.359375 51.148438 181.359375 58.855469 C 181.359375 63.277344 182.265625 67.167969 184.078125 70.53125 C 185.894531 73.894531 188.886719 77.269531 193.082031 80.648438 C 187.75 83.746094 183.953125 87.601562 181.675781 92.210938 L 193.382812 103.917969 C 193.375 103.703125 193.371094 103.488281 193.371094 103.273438 C 193.371094 98.714844 194.957031 94.988281 198.132812 92.125 C 201.304688 89.257812 205.410156 87.816406 210.449219 87.816406 C 215.578125 87.816406 219.75 89.242188 222.980469 92.089844 C 226.207031 94.9375 227.8125 98.621094 227.8125 103.132812 L 227.8125 104.546875 C 227.8125 108.734375 226.226562 112.148438 223.050781 114.78125 C 219.878906 117.414062 215.820312 118.730469 210.875 118.730469 L 208.03125 118.558594 L 220.441406 130.96875 C 225.277344 129.710938 229.527344 127.445312 233.1875 124.164062 C 239.113281 118.847656 242.078125 112.109375 242.078125 103.957031 C 242.078125 93.691406 237.511719 85.921875 228.382812 80.648438 " clip-rule="nonzero"/></clipPath><clipPath id="a331b14912"><path d="M 269.328125 31.296875 L 301.972656 31.296875 L 301.972656 69 L 269.328125 69 Z M 269.328125 31.296875 " clip-rule="nonzero"/></clipPath><clipPath id="fdbced960c"><path d="M 301.566406 34.507812 L 301.566406 37.59375 C 297.125 35.234375 292.78125 34.050781 288.515625 34.050781 C 283.964844 34.050781 280.167969 35.59375 277.109375 38.695312 C 274.050781 41.792969 272.523438 45.640625 272.523438 50.269531 C 272.523438 54.953125 274.066406 58.800781 277.136719 61.820312 C 280.210938 64.839844 284.140625 66.355469 288.902344 66.355469 C 292.886719 66.355469 297.21875 65.109375 301.929688 62.613281 L 301.929688 65.550781 C 297.59375 67.84375 293.277344 68.984375 288.957031 68.984375 C 283.390625 68.984375 278.746094 67.199219 275.03125 63.632812 C 271.316406 60.0625 269.464844 55.597656 269.464844 50.269531 C 269.464844 44.90625 271.355469 40.425781 275.152344 36.828125 C 278.949219 33.234375 283.457031 31.4375 288.703125 31.4375 C 292.820312 31.4375 297.113281 32.457031 301.566406 34.507812 " clip-rule="nonzero"/></clipPath><clipPath id="b626b8d1e2"><path d="M 312.125 31.296875 L 351.144531 31.296875 L 351.144531 69 L 312.125 69 Z M 312.125 31.296875 " clip-rule="nonzero"/></clipPath><clipPath id="2c682ef797"><path d="M 331.761719 66.367188 C 336.324219 66.367188 340.175781 64.8125 343.300781 61.6875 C 346.425781 58.5625 347.996094 54.75 347.996094 50.230469 C 347.996094 45.683594 346.425781 41.859375 343.300781 38.746094 C 340.175781 35.636719 336.3125 34.066406 331.761719 34.066406 C 327.1875 34.066406 323.3125 35.621094 320.144531 38.746094 C 316.980469 41.871094 315.382812 45.683594 315.382812 50.21875 C 315.382812 54.738281 316.964844 58.5625 320.132812 61.671875 C 323.296875 64.785156 327.175781 66.355469 331.75 66.355469 M 331.65625 31.4375 C 337.074219 31.4375 341.664062 33.261719 345.417969 36.894531 C 349.175781 40.53125 351.082031 44.984375 351.082031 50.21875 C 351.082031 55.433594 349.203125 59.875 345.433594 63.511719 C 341.664062 67.148438 337.074219 68.972656 331.667969 68.972656 C 326.277344 68.972656 321.703125 67.148438 317.960938 63.511719 C 314.214844 59.875 312.324219 55.449219 312.324219 50.21875 C 312.324219 44.972656 314.203125 40.53125 317.945312 36.894531 C 321.6875 33.261719 326.261719 31.4375 331.65625 31.4375 " clip-rule="nonzero"/></clipPath><clipPath id="a58e5c01e6"><path d="M 364.28125 31.894531 L 397.527344 31.894531 L 397.527344 68.523438 L 364.28125 68.523438 Z M 364.28125 31.894531 " clip-rule="nonzero"/></clipPath><clipPath id="3064086aa2"><path d="M 397.390625 31.90625 L 397.390625 68.515625 L 395.066406 68.515625 L 367.230469 36.519531 L 367.230469 68.515625 L 364.402344 68.515625 L 364.402344 31.90625 L 366.804688 31.90625 L 394.558594 63.898438 L 394.558594 31.90625 Z M 397.390625 31.90625 " clip-rule="nonzero"/></clipPath><clipPath id="0d0ddf2e30"><path d="M 410.464844 31.296875 L 431.167969 31.296875 L 431.167969 69 L 410.464844 69 Z M 410.464844 31.296875 " clip-rule="nonzero"/></clipPath><clipPath id="960df397ea"><path d="M 429.476562 33.742188 L 429.476562 36.855469 C 426.296875 34.992188 423.5625 34.050781 421.28125 34.050781 C 419.082031 34.050781 417.242188 34.722656 415.765625 36.0625 C 414.292969 37.40625 413.554688 39.054688 413.554688 41.027344 C 413.554688 42.4375 413.984375 43.722656 414.867188 44.851562 C 415.753906 45.976562 417.566406 47.078125 420.339844 48.125 C 423.117188 49.171875 425.144531 50.042969 426.417969 50.738281 C 427.691406 51.4375 428.78125 52.457031 429.664062 53.773438 C 430.550781 55.085938 431.007812 56.816406 431.007812 58.9375 C 431.007812 61.753906 429.972656 64.128906 427.921875 66.058594 C 425.867188 67.992188 423.347656 68.972656 420.382812 68.972656 C 417.335938 68.972656 414.210938 67.910156 411.003906 65.777344 L 411.003906 62.464844 C 414.546875 65.066406 417.617188 66.367188 420.234375 66.367188 C 422.394531 66.367188 424.230469 65.671875 425.722656 64.261719 C 427.210938 62.855469 427.960938 61.136719 427.960938 59.085938 C 427.960938 57.527344 427.492188 56.132812 426.566406 54.886719 C 425.640625 53.636719 423.761719 52.472656 420.933594 51.382812 C 418.101562 50.296875 416.074219 49.425781 414.867188 48.753906 C 413.660156 48.085938 412.628906 47.144531 411.769531 45.910156 C 410.910156 44.675781 410.496094 43.09375 410.496094 41.160156 C 410.496094 38.480469 411.527344 36.183594 413.59375 34.292969 C 415.660156 32.402344 418.113281 31.4375 421.011719 31.4375 C 423.855469 31.4375 426.6875 32.199219 429.476562 33.742188 " clip-rule="nonzero"/></clipPath><clipPath id="bd652b2162"><path d="M 439.847656 31.90625 L 470.164062 31.90625 L 470.164062 34.265625 L 439.847656 34.265625 Z M 453.582031 34.265625 L 456.441406 34.265625 L 456.441406 68.515625 L 453.582031 68.515625 Z M 453.582031 34.265625 " clip-rule="nonzero"/></clipPath><clipPath id="8a57b4c1d6"><path d="M 481 31.894531 L 508.808594 31.894531 L 508.808594 68.523438 L 481 68.523438 Z M 481 31.894531 " clip-rule="nonzero"/></clipPath><clipPath id="283ec60b9d"><path d="M 483.914062 34.265625 L 483.914062 48.59375 L 489.992188 48.59375 C 493.078125 48.59375 495.453125 47.964844 497.074219 46.714844 C 498.699219 45.46875 499.53125 43.699219 499.53125 41.402344 C 499.53125 39.148438 498.699219 37.390625 497.035156 36.132812 C 495.371094 34.871094 492.996094 34.238281 489.882812 34.238281 Z M 481.085938 31.90625 L 490.460938 31.90625 C 494.390625 31.90625 497.398438 32.75 499.476562 34.453125 C 501.554688 36.160156 502.589844 38.464844 502.589844 41.363281 C 502.589844 45.589844 500.265625 48.554688 495.613281 50.269531 C 496.820312 50.847656 498.441406 52.710938 500.480469 55.851562 L 508.757812 68.5 L 505.40625 68.5 L 499.035156 58.46875 C 496.898438 55.113281 495.25 53.019531 494.054688 52.1875 C 492.863281 51.355469 491.132812 50.941406 488.839844 50.941406 L 483.886719 50.941406 L 483.886719 68.515625 L 481.058594 68.515625 Z M 481.085938 31.90625 " clip-rule="nonzero"/></clipPath><clipPath id="7d7f00fb06"><path d="M 517.367188 31.894531 L 548.222656 31.894531 L 548.222656 69 L 517.367188 69 Z M 517.367188 31.894531 " clip-rule="nonzero"/></clipPath><clipPath id="1b096e6402"><path d="M 545.273438 31.90625 L 548.105469 31.90625 L 548.105469 51.867188 C 548.105469 57.328125 546.683594 61.550781 543.839844 64.515625 C 540.996094 67.480469 537.304688 68.972656 532.785156 68.972656 C 528.277344 68.972656 524.601562 67.507812 521.757812 64.570312 C 518.914062 61.632812 517.492188 57.621094 517.492188 52.523438 L 517.492188 31.90625 L 520.324219 31.90625 L 520.324219 52.417969 C 520.324219 56.789062 521.476562 60.199219 523.796875 62.667969 C 526.117188 65.132812 529.109375 66.355469 532.773438 66.355469 C 536.472656 66.355469 539.480469 65.109375 541.800781 62.625 C 544.121094 60.144531 545.273438 56.601562 545.273438 52.027344 Z M 545.273438 31.90625 " clip-rule="nonzero"/></clipPath><clipPath id="e550683938"><path d="M 560.566406 31.296875 L 593.210938 31.296875 L 593.210938 69 L 560.566406 69 Z M 560.566406 31.296875 " clip-rule="nonzero"/></clipPath><clipPath id="39afa9ada4"><path d="M 592.65625 34.507812 L 592.65625 37.59375 C 588.214844 35.234375 583.867188 34.050781 579.601562 34.050781 C 575.054688 34.050781 571.257812 35.59375 568.199219 38.695312 C 565.140625 41.792969 563.613281 45.640625 563.613281 50.269531 C 563.613281 54.953125 565.15625 58.800781 568.226562 61.820312 C 571.300781 64.839844 575.214844 66.355469 579.992188 66.355469 C 583.976562 66.355469 588.308594 65.109375 593.019531 62.613281 L 593.019531 65.550781 C 588.683594 67.84375 584.363281 68.984375 580.046875 68.984375 C 574.476562 68.984375 569.835938 67.199219 566.121094 63.632812 C 562.40625 60.0625 560.566406 55.597656 560.566406 50.269531 C 560.566406 44.90625 562.457031 40.425781 566.253906 36.828125 C 570.050781 33.234375 574.558594 31.4375 579.789062 31.4375 C 583.910156 31.4375 588.203125 32.457031 592.65625 34.507812 " clip-rule="nonzero"/></clipPath><clipPath id="a2f23dd4b5"><path d="M 600.90625 31.90625 L 631.222656 31.90625 L 631.222656 34.265625 L 600.90625 34.265625 Z M 614.640625 34.265625 L 617.5 34.265625 L 617.5 68.515625 L 614.640625 68.515625 Z M 614.640625 34.265625 " clip-rule="nonzero"/></clipPath><clipPath id="10983cc6d2"><path d="M 642.089844 31.90625 L 644.921875 31.90625 L 644.921875 68.515625 L 642.089844 68.515625 Z M 642.089844 31.90625 " clip-rule="nonzero"/></clipPath><clipPath id="f62358171f"><path d="M 658.109375 31.296875 L 697 31.296875 L 697 69 L 658.109375 69 Z M 658.109375 31.296875 " clip-rule="nonzero"/></clipPath><clipPath id="35c63c7f0b"><path d="M 677.664062 66.367188 C 682.226562 66.367188 686.078125 64.8125 689.203125 61.6875 C 692.328125 58.5625 693.910156 54.75 693.910156 50.230469 C 693.910156 45.683594 692.339844 41.859375 689.203125 38.746094 C 686.0625 35.636719 682.214844 34.066406 677.664062 34.066406 C 673.089844 34.066406 669.214844 35.621094 666.046875 38.746094 C 662.882812 41.871094 661.285156 45.695312 661.285156 50.230469 C 661.285156 54.75 662.867188 58.574219 666.046875 61.6875 C 669.226562 64.800781 673.089844 66.367188 677.664062 66.367188 M 677.558594 31.4375 C 682.976562 31.4375 687.566406 33.261719 691.320312 36.894531 C 695.078125 40.53125 696.96875 44.972656 696.96875 50.21875 C 696.96875 55.433594 695.089844 59.875 691.320312 63.511719 C 687.550781 67.148438 682.964844 68.972656 677.558594 68.972656 C 672.164062 68.972656 667.589844 67.148438 663.835938 63.511719 C 660.078125 59.875 658.226562 55.449219 658.226562 50.21875 C 658.226562 44.972656 660.105469 40.53125 663.847656 36.894531 C 667.589844 33.261719 672.164062 31.4375 677.558594 31.4375 " clip-rule="nonzero"/></clipPath><clipPath id="1b6c57695b"><path d="M 710.265625 31.894531 L 743.308594 31.894531 L 743.308594 68.523438 L 710.265625 68.523438 Z M 710.265625 31.894531 " clip-rule="nonzero"/></clipPath><clipPath id="028765159f"><path d="M 743.292969 31.90625 L 743.292969 68.515625 L 740.957031 68.515625 L 713.132812 36.519531 L 713.132812 68.515625 L 710.304688 68.515625 L 710.304688 31.90625 L 712.707031 31.90625 L 740.460938 63.898438 L 740.460938 31.90625 Z M 743.292969 31.90625 " clip-rule="nonzero"/></clipPath><clipPath id="8ce6c2433e"><path d="M 711.253906 93.558594 L 744.15625 93.558594 L 744.15625 130.175781 L 711.253906 130.175781 Z M 711.253906 93.558594 " clip-rule="nonzero"/></clipPath><clipPath id="a6822b0ff8"><path d="M 714.082031 95.921875 L 714.082031 127.808594 L 724.398438 127.808594 C 729.136719 127.808594 733.078125 126.359375 736.230469 123.449219 C 739.382812 120.539062 740.953125 116.6875 740.953125 111.882812 C 740.953125 107.191406 739.398438 103.351562 736.285156 100.386719 C 733.171875 97.421875 729.148438 95.933594 724.210938 95.933594 Z M 711.253906 93.558594 L 724.066406 93.558594 C 730.542969 93.558594 735.492188 95.265625 738.914062 98.671875 C 742.335938 102.078125 744.039062 106.480469 744.039062 111.871094 C 744.039062 117.15625 742.347656 121.53125 738.96875 124.976562 C 735.585938 128.425781 730.785156 130.15625 724.574219 130.15625 L 711.253906 130.15625 Z M 711.253906 93.558594 " clip-rule="nonzero"/></clipPath></defs><g clip-path="url(#f903eb90f1)"><g clip-path="url(#b960145eb1)"><path fill="#231f20" d="M 271.792969 93.558594 L 293.824219 93.558594 L 293.824219 130.140625 L 271.792969 130.140625 Z M 271.792969 93.558594 " fill-opacity="1" fill-rule="nonzero"/></g></g><g clip-path="url(#9a13d4436d)"><g clip-path="url(#8df661eac0)"><path fill="#231f20" d="M 312.078125 93.558594 L 339.769531 93.558594 L 339.769531 130.125 L 312.078125 130.125 Z M 312.078125 93.558594 " fill-opacity="1" fill-rule="nonzero"/></g></g><g clip-path="url(#34beff1ad1)"><g clip-path="url(#bf64a28858)"><path fill="#231f20" d="M 346.675781 86.382812 L 421.722656 86.382812 L 421.722656 137.339844 L 346.675781 137.339844 Z M 346.675781 86.382812 " fill-opacity="1" fill-rule="nonzero"/></g></g><g clip-path="url(#454f74d996)"><g clip-path="url(#37007cea30)"><path fill="#231f20" d="M 346.675781 86.382812 L 421.722656 86.382812 L 421.722656 137.339844 L 346.675781 137.339844 Z M 346.675781 86.382812 " fill-opacity="1" fill-rule="nonzero"/></g></g><g clip-path="url(#1df7d27604)"><path fill="#231f20" d="M 436.046875 93.558594 L 456.429688 93.558594 L 456.429688 130.1875 L 436.046875 130.1875 Z M 436.046875 93.558594 " fill-opacity="1" fill-rule="nonzero"/></g><g clip-path="url(#33dd0777c6)"><g clip-path="url(#2efd3a373a)"><path fill="#231f20" d="M 473.554688 93.089844 L 506.015625 93.089844 L 506.015625 130.625 L 473.554688 130.625 Z M 473.554688 93.089844 " fill-opacity="1" fill-rule="nonzero"/></g></g><g clip-path="url(#fc7d3f130c)"><path fill="#231f20" d="M 520.335938 93.558594 L 550.652344 93.558594 L 550.652344 130.152344 L 520.335938 130.152344 Z M 520.335938 93.558594 " fill-opacity="1" fill-rule="nonzero"/></g><g clip-path="url(#2118c54387)"><g clip-path="url(#215da09308)"><path fill="#231f20" d="M 566.230469 93.089844 L 586.746094 93.089844 L 586.746094 130.671875 L 566.230469 130.671875 Z M 566.230469 93.089844 " fill-opacity="1" fill-rule="nonzero"/></g></g><g clip-path="url(#2ec1617345)"><path fill="#231f20" d="M 627.148438 86.851562 L 700.609375 86.851562 L 700.609375 136.871094 L 627.148438 136.871094 Z M 627.148438 86.851562 " fill-opacity="1" fill-rule="nonzero"/></g><g clip-path="url(#58c43dc473)"><path fill="#231f20" d="M 627.148438 86.851562 L 700.609375 86.851562 L 700.609375 136.871094 L 627.148438 136.871094 Z M 627.148438 86.851562 " fill-opacity="1" fill-rule="nonzero"/></g><g clip-path="url(#3c24420f94)"><g clip-path="url(#783297d418)"><path fill="#144988" d="M 0 12.65625 L 245.570312 12.65625 L 245.570312 135.441406 L 0 135.441406 Z M 0 12.65625 " fill-opacity="1" fill-rule="nonzero"/></g></g><g clip-path="url(#63d53662a9)"><g clip-path="url(#083e01f5ac)"><path fill="#231f20" d="M 0 12.65625 L 245.570312 12.65625 L 245.570312 135.441406 L 0 135.441406 Z M 0 12.65625 " fill-opacity="1" fill-rule="nonzero"/></g></g><g clip-path="url(#0c0f46f759)"><g clip-path="url(#8ba5cb1a53)"><path fill="#417bbc" d="M 0 12.65625 L 245.570312 12.65625 L 245.570312 135.441406 L 0 135.441406 Z M 0 12.65625 " fill-opacity="1" fill-rule="nonzero"/></g></g><g clip-path="url(#f5b0558417)"><g clip-path="url(#efca2ea74e)"><path fill="#144988" d="M 0 12.65625 L 245.570312 12.65625 L 245.570312 135.441406 L 0 135.441406 Z M 0 12.65625 " fill-opacity="1" fill-rule="nonzero"/></g></g><g clip-path="url(#a331b14912)"><g clip-path="url(#fdbced960c)"><path fill="#231f20" d="M 262.757812 24.730469 L 750.078125 24.730469 L 750.078125 75.691406 L 262.757812 75.691406 Z M 262.757812 24.730469 " fill-opacity="1" fill-rule="nonzero"/></g></g><g clip-path="url(#b626b8d1e2)"><g clip-path="url(#2c682ef797)"><path fill="#231f20" d="M 262.757812 24.730469 L 750.078125 24.730469 L 750.078125 75.691406 L 262.757812 75.691406 Z M 262.757812 24.730469 " fill-opacity="1" fill-rule="nonzero"/></g></g><g clip-path="url(#a58e5c01e6)"><g clip-path="url(#3064086aa2)"><path fill="#231f20" d="M 262.757812 24.730469 L 750.078125 24.730469 L 750.078125 75.691406 L 262.757812 75.691406 Z M 262.757812 24.730469 " fill-opacity="1" fill-rule="nonzero"/></g></g><g clip-path="url(#0d0ddf2e30)"><g clip-path="url(#960df397ea)"><path fill="#231f20" d="M 262.757812 24.730469 L 750.078125 24.730469 L 750.078125 75.691406 L 262.757812 75.691406 Z M 262.757812 24.730469 " fill-opacity="1" fill-rule="nonzero"/></g></g><g clip-path="url(#bd652b2162)"><path fill="#231f20" d="M 262.757812 24.730469 L 750.078125 24.730469 L 750.078125 75.691406 L 262.757812 75.691406 Z M 262.757812 24.730469 " fill-opacity="1" fill-rule="nonzero"/></g><g clip-path="url(#8a57b4c1d6)"><g clip-path="url(#283ec60b9d)"><path fill="#231f20" d="M 262.757812 24.730469 L 750.078125 24.730469 L 750.078125 75.691406 L 262.757812 75.691406 Z M 262.757812 24.730469 " fill-opacity="1" fill-rule="nonzero"/></g></g><g clip-path="url(#7d7f00fb06)"><g clip-path="url(#1b096e6402)"><path fill="#231f20" d="M 262.757812 24.730469 L 750.078125 24.730469 L 750.078125 75.691406 L 262.757812 75.691406 Z M 262.757812 24.730469 " fill-opacity="1" fill-rule="nonzero"/></g></g><g clip-path="url(#e550683938)"><g clip-path="url(#39afa9ada4)"><path fill="#231f20" d="M 262.757812 24.730469 L 750.078125 24.730469 L 750.078125 75.691406 L 262.757812 75.691406 Z M 262.757812 24.730469 " fill-opacity="1" fill-rule="nonzero"/></g></g><g clip-path="url(#a2f23dd4b5)"><path fill="#231f20" d="M 262.757812 24.730469 L 750.078125 24.730469 L 750.078125 75.691406 L 262.757812 75.691406 Z M 262.757812 24.730469 " fill-opacity="1" fill-rule="nonzero"/></g><g clip-path="url(#10983cc6d2)"><path fill="#231f20" d="M 262.757812 24.730469 L 750.078125 24.730469 L 750.078125 75.691406 L 262.757812 75.691406 Z M 262.757812 24.730469 " fill-opacity="1" fill-rule="nonzero"/></g><g clip-path="url(#f62358171f)"><g clip-path="url(#35c63c7f0b)"><path fill="#231f20" d="M 262.757812 24.730469 L 750.078125 24.730469 L 750.078125 75.691406 L 262.757812 75.691406 Z M 262.757812 24.730469 " fill-opacity="1" fill-rule="nonzero"/></g></g><g clip-path="url(#1b6c57695b)"><g clip-path="url(#028765159f)"><path fill="#231f20" d="M 262.757812 24.730469 L 750.078125 24.730469 L 750.078125 75.691406 L 262.757812 75.691406 Z M 262.757812 24.730469 " fill-opacity="1" fill-rule="nonzero"/></g></g><g clip-path="url(#8ce6c2433e)"><g clip-path="url(#a6822b0ff8)"><path fill="#231f20" d="M 711.253906 93.558594 L 744.03125 93.558594 L 744.03125 130.175781 L 711.253906 130.175781 Z M 711.253906 93.558594 " fill-opacity="1" fill-rule="nonzero"/></g></g></svg>