<svg xmlns="http://www.w3.org/2000/svg" xmlns:xlink="http://www.w3.org/1999/xlink" width="500" zoomAndPan="magnify" viewBox="0 0 375 225" height="300" preserveAspectRatio="xMidYMid meet" version="1.0"><defs><clipPath id="a38cbe104a"><path d="M 67 53.132812 L 197.882812 53.132812 L 197.882812 187 L 67 187 Z M 67 53.132812 " clip-rule="nonzero"/></clipPath><clipPath id="b70739419b"><path d="M 168.136719 106.753906 L 124.804688 106.753906 L 124.804688 127.039062 L 170.0625 127.039062 C 164.554688 143.976562 148.652344 156.226562 129.882812 156.226562 C 106.546875 156.226562 87.636719 137.3125 87.636719 113.976562 C 87.636719 90.644531 106.546875 71.730469 129.882812 71.730469 L 133.257812 71.875 L 114.683594 53.300781 C 87.480469 60.09375 67.332031 84.679688 67.332031 113.988281 C 67.332031 148.539062 95.339844 176.539062 129.882812 176.539062 C 148.765625 176.539062 165.679688 168.15625 177.152344 154.933594 L 177.152344 186.710938 L 197.4375 186.710938 L 197.4375 136.054688 Z M 168.136719 106.753906 " clip-rule="nonzero"/></clipPath><clipPath id="8e02c00ab2"><path d="M 5 23.085938 L 214 23.085938 L 214 201.914062 L 5 201.914062 Z M 5 23.085938 " clip-rule="nonzero"/></clipPath><clipPath id="d0611a795f"><path d="M 8.1875 198.125 L 210.292969 198.125 L 210.292969 132.6875 L 105.730469 28.132812 L 50.414062 82.742188 L 50.414062 47.867188 L 26.566406 47.867188 L 26.566406 106.28125 L 8.1875 124.425781 Z M 213.363281 201.195312 L 5.117188 201.195312 L 5.117188 123.148438 L 23.496094 104.992188 L 23.496094 44.796875 L 53.484375 44.796875 L 53.484375 75.394531 L 105.75 23.804688 L 213.363281 131.417969 Z M 213.363281 201.195312 " clip-rule="nonzero"/></clipPath><clipPath id="5dd2472416"><path d="M 176 46 L 324.675781 46 L 324.675781 199.714844 L 176 199.714844 Z M 176 46 " clip-rule="nonzero"/></clipPath><clipPath id="750a2f09dd"><path d="M 324.503906 199.617188 L 242.609375 117.734375 C 245.804688 111.175781 247.605469 103.816406 247.605469 96.027344 C 247.605469 68.578125 225.355469 46.332031 197.910156 46.332031 C 185.710938 46.332031 180.539062 48.03125 176.121094 51.425781 L 176.109375 54.601562 C 176.097656 54.601562 176.109375 57.925781 176.109375 57.925781 L 176.109375 67.09375 L 176.121094 76.675781 L 196.402344 96.773438 L 196.402344 67.25 C 196.8125 67.230469 197.234375 67.207031 197.652344 67.207031 C 213.84375 67.207031 226.964844 80.328125 226.964844 96.519531 C 226.964844 105.894531 222.550781 114.234375 215.707031 119.605469 L 225.714844 129.617188 C 225.726562 129.605469 225.726562 129.605469 225.734375 129.605469 L 230.054688 133.925781 C 230.0625 133.914062 230.085938 133.902344 230.09375 133.882812 L 295.828125 199.617188 Z M 324.503906 199.617188 " clip-rule="nonzero"/></clipPath><clipPath id="1897be6964"><path d="M 277.039062 46.539062 L 370 46.539062 L 370 199.714844 L 277.039062 199.714844 Z M 277.039062 46.539062 " clip-rule="nonzero"/></clipPath><clipPath id="f77d095d86"><path d="M 339.355469 105.863281 C 334.75 110.285156 329.183594 112.496094 322.632812 112.496094 C 316.011719 112.496094 310.351562 110.261719 305.644531 105.800781 C 300.9375 101.339844 298.582031 95.988281 298.582031 89.734375 C 298.582031 83.195312 300.8125 77.832031 305.273438 73.664062 C 309.738281 69.5 315.449219 67.414062 322.425781 67.414062 C 329.324219 67.414062 335.027344 69.53125 339.519531 73.777344 C 344.011719 78.027344 346.261719 83.417969 346.261719 89.957031 C 346.261719 96.140625 343.960938 101.441406 339.363281 105.871094 M 348.964844 122.59375 C 361.46875 113.824219 367.734375 102.730469 367.734375 89.285156 C 367.734375 77.359375 363.394531 67.308594 354.738281 59.152344 C 346.078125 50.996094 335.445312 46.925781 322.855469 46.925781 C 310.054688 46.925781 299.238281 51.039062 290.394531 59.265625 C 281.550781 67.496094 277.132812 77.503906 277.132812 89.285156 C 277.132812 96.039062 278.511719 101.984375 281.285156 107.121094 C 284.058594 112.257812 288.632812 117.417969 295.039062 122.585938 C 286.894531 127.3125 281.089844 133.207031 277.613281 140.25 L 295.5 158.140625 C 295.492188 157.8125 295.480469 157.484375 295.480469 157.15625 C 295.480469 150.1875 297.90625 144.496094 302.757812 140.117188 C 307.609375 135.734375 313.882812 133.535156 321.578125 133.535156 C 329.417969 133.535156 335.792969 135.714844 340.726562 140.066406 C 345.660156 144.414062 348.113281 150.042969 348.113281 156.941406 L 348.113281 159.101562 C 348.113281 165.496094 345.691406 170.714844 340.839844 174.738281 C 335.988281 178.761719 329.785156 180.777344 322.234375 180.777344 L 317.882812 180.511719 L 336.847656 199.472656 C 344.238281 197.550781 350.734375 194.089844 356.324219 189.078125 C 365.378906 180.949219 369.914062 170.65625 369.914062 158.199219 C 369.914062 142.511719 362.933594 130.640625 348.984375 122.585938 " clip-rule="nonzero"/></clipPath></defs><g clip-path="url(#a38cbe104a)"><g clip-path="url(#b70739419b)"><path fill="#144988" d="M 0 18.6875 L 375.246094 18.6875 L 375.246094 206.3125 L 0 206.3125 Z M 0 18.6875 " fill-opacity="1" fill-rule="nonzero"/></g></g><g clip-path="url(#8e02c00ab2)"><g clip-path="url(#d0611a795f)"><path fill="#231f20" d="M 0 18.6875 L 375.246094 18.6875 L 375.246094 206.3125 L 0 206.3125 Z M 0 18.6875 " fill-opacity="1" fill-rule="nonzero"/></g></g><g clip-path="url(#5dd2472416)"><g clip-path="url(#750a2f09dd)"><path fill="#417bbc" d="M 0 18.6875 L 375.246094 18.6875 L 375.246094 206.3125 L 0 206.3125 Z M 0 18.6875 " fill-opacity="1" fill-rule="nonzero"/></g></g><g clip-path="url(#1897be6964)"><g clip-path="url(#f77d095d86)"><path fill="#144988" d="M 0 18.6875 L 375.246094 18.6875 L 375.246094 206.3125 L 0 206.3125 Z M 0 18.6875 " fill-opacity="1" fill-rule="nonzero"/></g></g></svg>